<?xml version="1.0" encoding="UTF-8" standalone="no"?>
<svg
   width="96"
   height="96"
   xml:space="preserve"
   overflow="hidden"
   version="1.1"
   id="svg2"
   sodipodi:docname="attach_icon.svg"
   inkscape:version="1.3 (0e150ed6c4, 2023-07-21)"
   xmlns:inkscape="http://www.inkscape.org/namespaces/inkscape"
   xmlns:sodipodi="http://sodipodi.sourceforge.net/DTD/sodipodi-0.dtd"
   xmlns="http://www.w3.org/2000/svg"
   xmlns:svg="http://www.w3.org/2000/svg"><defs
     id="defs2" /><sodipodi:namedview
     id="namedview2"
     pagecolor="#505050"
     bordercolor="#ffffff"
     borderopacity="1"
     inkscape:showpageshadow="0"
     inkscape:pageopacity="0"
     inkscape:pagecheckerboard="1"
     inkscape:deskcolor="#505050"
     inkscape:zoom="8.09375"
     inkscape:cx="47.938224"
     inkscape:cy="48"
     inkscape:window-width="1920"
     inkscape:window-height="991"
     inkscape:window-x="-9"
     inkscape:window-y="1350"
     inkscape:window-maximized="1"
     inkscape:current-layer="svg2" /><path
     d="m 50.189404,57.563846 -5.466389,4.9783 4.9783,5.46639 5.466389,-4.978302 c 1.140383,-1.021676 2.89372,-0.925217 3.91548,0.215355 1.009419,1.127505 0.928621,2.856501 -0.182461,3.884636 l -5.466345,4.977376 3.111767,3.416856 -6.832745,6.222656 c -4.862534,4.430131 -12.168999,4.832724 -17.489323,0.963684 l -2.244351,2.11555 c -4.93164,4.622024 -11.519005,7.058832 -18.271746,6.758538 l -3.0898294,-0.14439 0.258841,-5.538992 3.0898294,0.144391 c 5.253295,0.235081 10.379482,-1.660361 14.21589,-5.256838 l 2.305276,-2.17192 C 25.10084,72.956153 26.173007,65.692792 31.049966,61.250938 l 6.828215,-6.224717 3.111768,3.416855 5.465467,-4.978344 c 1.140391,-1.021861 2.892825,-0.925906 3.914599,0.214385 1.010354,1.127271 0.929553,2.856359 -0.180607,3.884721 z"
     fill="#ffffff"
     id="path1"
     style="stroke-width:0.924173" /><g
     fill="#ffffff"
     fill-rule="nonzero"
     stroke="none"
     stroke-width="1"
     stroke-linecap="butt"
     stroke-linejoin="miter"
     stroke-miterlimit="10"
     stroke-dasharray="none"
     stroke-dashoffset="0"
     font-family="none"
     font-weight="none"
     font-size="none"
     text-anchor="none"
     style="mix-blend-mode:normal"
     id="g3"
     transform="matrix(0.28666743,0,0,0.28666743,24.44407,-7.2243366)"><g
       transform="scale(8.53333)"
       id="g2"><path
         d="M 27.324,4.804 22.574,3.179 C 22.259,3.071 21.907,3.128 21.642,3.331 L 10.934,11.541 5.517,8.27 C 5.239,8.101 4.897,8.078 4.599,8.209 l -2,0.875 C 2.235,9.243 2,9.603 2,10 v 10 c 0,0.397 0.235,0.757 0.599,0.916 l 2,0.875 c 0.297,0.131 0.639,0.107 0.918,-0.061 l 5.416,-3.271 10.708,8.21 c 0.177,0.136 0.392,0.206 0.608,0.206 0.109,0 0.218,-0.018 0.324,-0.054 l 4.75,-1.625 C 27.728,25.058 28,24.678 28,24.25 V 5.75 C 28,5.322 27.728,4.942 27.324,4.804 Z M 6,16.766 V 13.234 L 8.923,15 Z M 22,19.717 15.038,15 22,10.283 Z"
         id="path1-3" /></g></g></svg>
